<svg baseProfile="tiny" xmlns="http://www.w3.org/2000/svg" viewBox="0 0 70 70"><circle fill="#fff" cx="35" cy="35" r="35"/><path fill-rule="evenodd" fill="#fff" d="M65.103 45.874h-60.212c-1.222-3.398-1.891-7.056-1.891-10.872 0-3.82.669-7.478 1.891-10.876h60.212c1.232 3.398 1.897 7.056 1.897 10.876 0 3.816-.665 7.474-1.897 10.872z"/><path fill-rule="evenodd" fill="#198A44" d="M4.896 45.874h60.207c-4.449 12.326-16.25 21.135-30.1 21.135-13.856 0-25.653-8.808-30.107-21.135z"/><path fill-rule="evenodd" fill="#F89939" d="M65.103 24.127h-60.207c4.454-12.323 16.251-21.135 30.107-21.135 13.85 0 25.651 8.813 30.1 21.135z"/><path d="M35 25.573c-5.206 0-9.427 4.221-9.427 9.427s4.221 9.427 9.427 9.427c5.207 0 9.427-4.221 9.427-9.427s-4.22-9.427-9.427-9.427zm8.322 10.026c-.286 0-.517.231-.517.517 0 .26.191.474.441.511-.075.381-.175.753-.3 1.114-.234-.091-.506-.001-.635.223-.143.247-.058.564.19.706l.049.025c-.172.351-.368.689-.586 1.01-.202-.146-.486-.129-.668.053-.202.202-.202.53 0 .732l.037.033c-.255.292-.53.566-.822.821l-.033-.036c-.202-.202-.529-.202-.732 0-.181.181-.199.463-.055.665-.316.213-.648.405-.992.574-.103-.226-.357-.351-.604-.284-.276.074-.439.358-.365.634l.015.047c-.367.127-.745.229-1.132.304-.041-.245-.253-.431-.51-.431-.285 0-.517.232-.517.517l.003.049c-.195.013-.391.021-.589.021-.192 0-.383-.007-.572-.02l.003-.05c0-.286-.232-.517-.517-.517-.257 0-.47.188-.51.435-.382-.073-.755-.172-1.117-.296.091-.234 0-.505-.224-.634-.247-.143-.564-.058-.706.19l-.025.051c-.352-.171-.689-.365-1.011-.582.15-.202.134-.489-.05-.673-.202-.202-.529-.202-.731 0l-.04.045c-.293-.254-.569-.529-.825-.822l.047-.041c.202-.202.202-.529 0-.732-.185-.185-.476-.2-.679-.045-.216-.319-.411-.653-.583-1.001.238-.097.372-.358.303-.612-.074-.276-.358-.439-.634-.365l-.069.024c-.127-.366-.23-.743-.306-1.13.257-.03.457-.248.457-.513 0-.286-.232-.517-.517-.517l-.077.006c-.014-.2-.022-.402-.022-.605l.019-.565.079.007c.286 0 .517-.232.517-.517 0-.268-.204-.488-.465-.514.073-.384.173-.758.296-1.121.24.11.529.021.663-.212.143-.247.058-.564-.19-.706l-.08-.037c.172-.355.369-.696.587-1.02.203.17.506.16.697-.031.202-.202.202-.529 0-.731l-.069-.057c.257-.296.534-.573.829-.83l.058.07c.202.202.529.202.731 0 .192-.192.201-.496.029-.7.319-.216.654-.41 1.002-.581.09.251.359.396.621.325.276-.074.439-.358.365-.634l-.033-.088c.37-.128.752-.231 1.144-.306.022.266.244.474.515.474.285 0 .517-.232.517-.517l-.009-.09c.191-.013.384-.02.578-.02.2 0 .399.007.595.021l-.008.089c0 .286.232.517.517.517.27 0 .492-.207.515-.471.385.075.76.176 1.124.302-.111.24-.022.53.211.664.247.143.564.058.706-.19l.036-.078c.353.173.692.37 1.015.589-.166.203-.154.503.035.692.202.202.529.202.732 0l.051-.061c.294.257.57.534.825.829l-.059.05c-.202.202-.202.529 0 .731.188.188.483.201.686.04.215.32.408.656.578 1.005-.239.096-.374.358-.306.613.074.276.358.439.634.365l.066-.023c.125.366.225.744.299 1.13-.253.034-.448.25-.448.512 0 .286.232.517.517.517l.062-.004.019.562c0 .203-.008.404-.022.602l-.06-.004zm-8.315-8.997l-.332 4.826s.332 1.768.332 3.567c0-1.798.319-3.567.319-3.567l-.319-4.826zm0 16.797l-.332-4.826s.332-1.768.332-3.567c0 1.798.319 3.567.319 3.567l-.319 4.826zm8.391-8.392l-4.826-.332s-1.768.332-3.567.332c1.798 0 3.567.319 3.567.319l4.826-.319zm-16.796 0l4.825-.332s1.768.332 3.567.332c-1.798 0-3.567.319-3.567.319l-4.825-.319zm14.341-5.941l-3.647 3.178s-1.016 1.485-2.288 2.757c1.272-1.272 2.747-2.297 2.747-2.297l3.187-3.638zm-11.877 11.878l3.178-3.647s1.485-1.016 2.757-2.288c-1.272 1.272-2.296 2.748-2.296 2.748l-3.638 3.187zm11.868 0l-3.178-3.647s-1.485-1.016-2.757-2.288c1.272 1.272 2.297 2.748 2.297 2.748l3.638 3.187zm-11.877-11.878l3.647 3.178s1.015 1.485 2.287 2.757c-1.272-1.272-2.748-2.297-2.748-2.297l-3.187-3.638zm8.161-2.166l-1.591 4.568s-.145 1.793-.619 3.528c.474-1.735 1.247-3.357 1.247-3.357l.963-4.739zm-4.423 16.204l.951-4.743s.786-1.618 1.259-3.353c-.473 1.735-.632 3.525-.632 3.525l-1.578 4.571zm10.305-5.886l-4.568-1.591s-1.793-.145-3.528-.619c1.735.473 3.357 1.247 3.357 1.247l4.739.963zm-16.204-4.423l4.743.951s1.618.786 3.353 1.259c-1.735-.473-3.525-.632-3.525-.632l-4.572-1.578zm15.4-1.954l-4.355 2.105s-1.371 1.165-2.933 2.057c1.562-.892 3.255-1.492 3.255-1.492l4.033-2.67zm-14.586 8.33l4.026-2.682s1.7-.589 3.262-1.481c-1.561.892-2.939 2.046-2.939 2.046l-4.348 2.116zm11.45 3.125l-2.105-4.355s-1.165-1.371-2.057-2.933c.892 1.561 1.492 3.255 1.492 3.255l2.67 4.032zm-8.331-14.585l2.681 4.026s.589 1.7 1.481 3.262c-.892-1.562-2.046-2.939-2.046-2.939l-2.117-4.348zm8.381.022l-2.703 4.012s-.598 1.697-1.498 3.254c.9-1.557 2.061-2.928 2.061-2.928l2.139-4.337zm-8.408 14.542l2.128-4.344s1.172-1.365 2.072-2.922c-.9 1.557-1.509 3.247-1.509 3.247l-2.691 4.018zm11.466-3.065l-4.012-2.703s-1.697-.598-3.254-1.498c1.557.9 2.928 2.061 2.928 2.061l4.337 2.139zm-14.542-8.407l4.344 2.128s1.365 1.172 2.922 2.072c-1.557-.9-3.247-1.509-3.247-1.509l-4.018-2.691zm15.39 2.035l-4.748.926s-1.622.777-3.36 1.242c1.737-.464 3.528-.613 3.528-.613l4.58-1.554zm-16.227 4.338l4.576-1.567s1.794-.136 3.531-.601c-1.737.464-3.363 1.229-3.363 1.229l-4.744.938zm10.274 5.94l-.926-4.748s-.777-1.623-1.242-3.36c.465 1.737.613 3.528.613 3.528l1.554 4.58zm-4.338-16.227l1.567 4.576s.136 1.794.6 3.531c-.465-1.737-1.229-3.363-1.229-3.363l-.938-4.744z" fill="#2D2F78"/></svg>