<svg xmlns="http://www.w3.org/2000/svg" viewBox="0 0 30 34" enable-background="new 0 0 30 34"><path d="M30 22.499c0 1.1-.749 2.5-1.665 3.111l-11.67 7.78c-.916.61-2.414.61-3.33 0l-11.67-7.78c-.916-.611-1.665-2.01-1.665-3.111v-10.998c0-1.1.749-2.5 1.665-3.111l11.67-7.78c.916-.61 2.414-.61 3.33 0l11.67 7.78c.916.611 1.665 2.01 1.665 3.111v10.998z" fill="#C94E4B"/><g><path d="M28 15v-4h-3v-1h-1v-3h-4v1.5c0 .828-.672 1.5-1.5 1.5s-1.5-.672-1.5-1.5v-1.5h-4v1.5c0 .828-.672 1.5-1.5 1.5s-1.5-.672-1.5-1.5v-1.5h-4v3h-1v1h-3v4h1.5c.828 0 1.5.672 1.5 1.5s-.672 1.5-1.5 1.5h-1.5v4h3v1h1v3h4v-1.5c0-.828.672-1.5 1.5-1.5s1.5.672 1.5 1.5v1.5h4v-1.5c0-.828.672-1.5 1.5-1.5s1.5.672 1.5 1.5v1.5h4v-3h1v-1h3v-4h-1.5c-.828 0-1.5-.672-1.5-1.5s.672-1.5 1.5-1.5h1.5zm-4 7h-18v-11h18v11zM8 13h4v1h-4zM8 13h1v3h-1zM8 15h3v1h-3zM11 15h1v3h-1zM8 17h4v1h-4zM13 14h4v1h-4zM13 15h1v2h-1zM13 17h4v1h-4z" fill="#fff"/></g><path d="M15 1.152c.429 0 .834.106 1.11.29l11.67 7.78c.639.426 1.22 1.512 1.22 2.279v10.998c0 .767-.581 1.853-1.219 2.279l-11.67 7.78c-.276.184-.681.29-1.11.29s-.834-.106-1.11-.29l-11.67-7.78c-.64-.426-1.221-1.512-1.221-2.279v-10.998c0-.767.581-1.853 1.219-2.279l11.67-7.78c.277-.184.682-.29 1.111-.29m0-1c-.603 0-1.207.153-1.665.458l-11.67 7.78c-.916.611-1.665 2.01-1.665 3.111v10.998c0 1.1.749 2.5 1.665 3.111l11.67 7.78c.458.305 1.061.458 1.665.458s1.207-.153 1.665-.458l11.67-7.78c.916-.611 1.665-2.01 1.665-3.111v-10.998c0-1.1-.749-2.5-1.665-3.111l-11.67-7.78c-.458-.305-1.062-.458-1.665-.458z" fill="#C94E4B"/><g><path d="M26.041 28.945l.005-.004c.726-.648 1.822-1.626 1.822-3.361 0-2.121-1.674-3.603-4.07-3.603-1.58 0-2.965.749-3.704 2.003-.074.125-.307.565-.307 1.096 0 1.072.84 1.911 1.912 1.911.735 0 1.416-.44 1.823-1.176.067-.119.111-.119.168-.119l.081.011c-.026.077-.026.239-.396.577l-2.744 2.493c-.71.654-1.012 1.24-1.012 1.964 0 .975.706 1.959 2.284 1.959h4.125c1.355 0 1.972-.972 1.972-1.876 0-.9-.613-1.869-1.959-1.875" fill="#C94E4B"/><path d="M21.903 31.696c-1.127 0-1.283-.636-1.283-.959 0-.336.084-.672.683-1.224l2.747-2.495c.419-.384.695-.791.695-1.306 0-.6-.42-1.02-1.055-1.02-.48 0-.828.252-1.043.636-.192.347-.528.659-.948.659-.54 0-.912-.407-.912-.911 0-.204.084-.444.168-.588.552-.936 1.608-1.511 2.843-1.511 1.559 0 3.07.827 3.07 2.603 0 1.211-.708 1.919-1.487 2.614l-1.967 1.751h2.614c.84 0 .972.588.972.875 0 .288-.132.876-.972.876h-4.125z" fill="#fff"/></g></svg>