<svg xmlns="http://www.w3.org/2000/svg" viewBox="0 0 30 34" enable-background="new 0 0 30 34"><path d="M30 22.499c0 1.1-.749 2.5-1.665 3.111l-11.67 7.78c-.916.61-2.414.61-3.33 0l-11.67-7.78c-.916-.611-1.665-2.01-1.665-3.111v-10.998c0-1.1.749-2.5 1.665-3.111l11.67-7.78c.916-.61 2.414-.61 3.33 0l11.67 7.78c.916.611 1.665 2.01 1.665 3.111v10.998z" fill="#4CC1BE"/><g fill="#fff"><path d="M7 11.333l-2 12h7.562v1.541c0 .942.767 1.709 1.709 1.709h4.058c.942 0 1.709-.767 1.709-1.709v-1.541h3.692l1.269-5-17.999-7zm11.871 13.542c0 .299-.243.542-.542.542h-4.058c-.299 0-.542-.243-.542-.542v-1.541h5.141v1.541zM26.947 18.068c-.311-.081-.63.106-.712.418l-1.3 5c-.081.312.106.631.418.712l.147.019c.259 0 .496-.174.564-.437l1.3-5c.082-.312-.105-.631-.417-.712zM12.528 11l2.472-1.3 2.472 1.3-.472-2.753 2-1.949-2.764-.402-1.236-2.504-1.236 2.504-2.764.402 2 1.949z"/></g></svg>