<svg xmlns="http://www.w3.org/2000/svg" viewBox="0 0 30 34" enable-background="new 0 0 30 34"><path d="M30 22.499c0 1.1-.749 2.5-1.665 3.111l-11.67 7.78c-.916.61-2.414.61-3.33 0l-11.67-7.78c-.916-.611-1.665-2.01-1.665-3.111v-10.998c0-1.1.749-2.5 1.665-3.111l11.67-7.78c.916-.61 2.414-.61 3.33 0l11.67 7.78c.916.611 1.665 2.01 1.665 3.111v10.998z" fill="#F95858"/><path d="M15.13 21.368c-.705 1.136-2.185 1.482-3.322.776-1.136-.706-1.482-2.186-.776-3.322l1.357-2.165c.451-.727 1.418-.953 2.144-.501.466.289 1.085.144 1.375-.322.289-.465.144-1.085-.321-1.374-1.659-1.03-3.864-.514-4.893 1.144l-1.358 2.165c-1.284 2.068-.649 4.786 1.419 6.071 1.025.636 2.226.801 3.328.543 1.103-.257 2.091-.934 2.743-1.962.289-.466.145-1.085-.321-1.375-.466-.289-1.085-.144-1.375.322m4.119-11.204c-2.068-1.285-4.786-.649-6.071 1.419-.289.466-.145 1.085.321 1.374.466.289 1.085.145 1.375-.321.705-1.137 2.185-1.482 3.322-.777 1.136.706 1.482 2.186.776 3.323l-1.357 2.165c-.448.741-1.414.967-2.145.501-.465-.289-1.084-.145-1.374.321-.289.466-.144 1.085.321 1.374.839.521 1.792.649 2.683.44.891-.208 1.69-.745 2.21-1.583l1.343-2.162c1.299-2.071.664-4.789-1.404-6.074" fill="#fff"/><path d="M15 1.152c.429 0 .834.106 1.11.29l11.67 7.78c.639.426 1.22 1.512 1.22 2.279v10.998c0 .767-.581 1.853-1.219 2.279l-11.67 7.78c-.276.184-.681.29-1.11.29s-.834-.106-1.11-.29l-11.67-7.78c-.64-.426-1.221-1.512-1.221-2.279v-10.998c0-.767.581-1.853 1.219-2.279l11.67-7.78c.277-.184.682-.29 1.111-.29m0-1c-.603 0-1.207.153-1.665.458l-11.67 7.78c-.916.611-1.665 2.01-1.665 3.111v10.998c0 1.1.749 2.5 1.665 3.111l11.67 7.78c.458.305 1.061.458 1.665.458s1.207-.153 1.665-.458l11.67-7.78c.916-.611 1.665-2.01 1.665-3.111v-10.998c0-1.1-.749-2.5-1.665-3.111l-11.67-7.78c-.458-.305-1.062-.458-1.665-.458z" fill="#F95858"/><g><path d="M26.041 29.097l.005-.004c.726-.648 1.822-1.626 1.822-3.361 0-2.121-1.674-3.603-4.07-3.603-1.58 0-2.965.749-3.704 2.003-.074.125-.307.565-.307 1.096 0 1.072.84 1.911 1.912 1.911.735 0 1.416-.44 1.823-1.176.067-.119.111-.119.168-.119l.081.011c-.026.077-.026.239-.396.577l-2.744 2.493c-.71.654-1.012 1.24-1.012 1.964 0 .975.706 1.959 2.284 1.959h4.125c1.355 0 1.972-.972 1.972-1.876 0-.9-.613-1.869-1.959-1.875" fill="#F95858"/><path d="M21.903 31.848c-1.127 0-1.283-.636-1.283-.959 0-.336.084-.672.683-1.224l2.747-2.495c.419-.384.695-.791.695-1.306 0-.6-.42-1.02-1.055-1.02-.48 0-.828.252-1.043.636-.192.347-.528.659-.948.659-.54 0-.912-.407-.912-.911 0-.204.084-.444.168-.588.552-.936 1.608-1.511 2.843-1.511 1.559 0 3.07.827 3.07 2.603 0 1.211-.708 1.919-1.487 2.614l-1.967 1.751h2.614c.84 0 .972.588.972.875 0 .288-.132.876-.972.876h-4.125z" fill="#fff"/></g></svg>