<svg xmlns="http://www.w3.org/2000/svg" viewBox="0 0 30 34" enable-background="new 0 0 30 34"><path d="M30 22.499c0 1.1-.749 2.5-1.665 3.111l-11.67 7.78c-.916.61-2.414.61-3.33 0l-11.67-7.78c-.916-.611-1.665-2.01-1.665-3.111v-10.998c0-1.1.749-2.5 1.665-3.111l11.67-7.78c.916-.61 2.414-.61 3.33 0l11.67 7.78c.916.611 1.665 2.01 1.665 3.111v10.998z" fill="#5D7DBA"/><path fill="#fff" d="M20.657 21.243l-1.823-1.823.697-2.599 2.489-.667.518 1.932 5.019-4.451-6.572-1.345.518 1.932-2.49.667-1.902-1.902.667-2.49 1.932.518-1.345-6.572-4.451 5.019 1.932.518-.667 2.489-2.599.697-1.823-1.823 1.415-1.414-6.364-2.121 2.121 6.364 1.414-1.415 1.823 1.823-.697 2.599-2.489.667-.518-1.932-5.019 4.451 6.572 1.344-.518-1.931 2.49-.667 1.902 1.902-.667 2.49-1.932-.518 1.345 6.572 4.451-5.019-1.932-.518.667-2.489 2.599-.697 1.823 1.823-1.415 1.414 6.364 2.121-2.121-6.364z"/></svg>